<svg width="64" height="64" viewBox="0 0 32 32" fill="none" xmlns="http://www.w3.org/2000/svg">
  <rect x="2" y="2" width="28" height="28" rx="8" fill="#F9FAFB"/>
  <rect x="2" y="2" width="28" height="28" rx="8" stroke="#E5E7EB" stroke-width="1.2"/>
  <path d="M16 7C14.4 7.8 12.9 8.2 11.5 8.4V16C11.5 19.1 13.1 21.8 16 23C18.9 21.8 20.5 19.1 20.5 16V8.4C19.1 8.2 17.6 7.8 16 7Z"
        fill="white" stroke="#4F46E5" stroke-width="1.4" stroke-linejoin="round"/>
  <path d="M13.2 16.1C13.8 15.4 14.5 15 15.2 15C16 15 16.5 15.5 17.2 16.1C17.9 16.8 18.5 17.3 19.3 17.3C19.9 17.3 20.5 17.0 21 16.5"
        stroke="#22C55E" stroke-width="1.4" stroke-linecap="round" stroke-linejoin="round"/>
  <circle cx="16" cy="13" r="1.1" fill="#4F46E5"/>
</svg>
