<svg width="160" height="40" viewBox="0 0 160 40" fill="none" xmlns="http://www.w3.org/2000/svg">
  <rect x="0.75" y="0.75" width="158.5" height="38.5" rx="19.25" fill="white"/>
  <rect x="0.75" y="0.75" width="158.5" height="38.5" rx="19.25" stroke="#E4E4E7" stroke-width="1.5"/>
  <circle cx="20" cy="20" r="13" fill="#EEF2FF"/>
  <circle cx="20" cy="20" r="12.25" stroke="#4F46E5" stroke-width="1.5"/>
  <path d="M20 11.5C18.2 12.3 16.5 12.7 15 12.9V20C15 23.3 16.9 26.2 20 27.7C23.1 26.2 25 23.3 25 20V12.9C23.5 12.7 21.8 12.3 20 11.5Z"
        fill="white" stroke="#4F46E5" stroke-width="1.5" stroke-linejoin="round"/>
  <path d="M16.5 20.2C17.2 19.4 18.0 18.9 18.8 18.9C19.7 18.9 20.3 19.5 21.1 20.2C21.9 21.0 22.5 21.6 23.4 21.6C24.1 21.6 24.7 21.3 25.2 20.7"
        stroke="#22C55E" stroke-width="1.4" stroke-linecap="round" stroke-linejoin="round"/>
  <circle cx="20" cy="17" r="1.1" fill="#4F46E5"/>
  <text x="40" y="18" font-family="system-ui, -apple-system, BlinkMacSystemFont, 'SF Pro Text', sans-serif"
        font-size="13" font-weight="600" fill="#111827">
    CryptVault
  </text>
  <text x="40" y="30" font-family="system-ui, -apple-system, BlinkMacSystemFont, 'SF Pro Text', sans-serif"
        font-size="11" font-weight="500" fill="#4B5563" letter-spacing="0.08em">
    ENCRYPTED LENDING
  </text>
</svg>
